<?xml version="1.0" encoding="UTF-8"?>
<svg width="163px" height="59px" viewBox="0 0 163 59" version="1.1" xmlns="http://www.w3.org/2000/svg" xmlns:xlink="http://www.w3.org/1999/xlink">
    <!-- Generator: sketchtool 45.2 (43514) - http://www.bohemiancoding.com/sketch -->
    <title>132AA3E3-2BC1-4CAE-A1B1-C70E3EDE64D4</title>
    <desc>Created with sketchtool.</desc>
    <defs>
        <polygon id="path-1" points="15.6413675 27.3597851 15.6413675 0.200791747 0.149223678 0.200791747 0.149223678 27.3597851 15.6413675 27.3597851"></polygon>
        <polygon id="path-3" points="5.61401911 9.93877971 0.181766083 9.93877971 0.181766083 0.0534990314 5.61401911 0.0534990314"></polygon>
        <polygon id="path-5" points="0 58.3264386 162.735307 58.3264386 162.735307 0 0 0"></polygon>
    </defs>
    <g id="Onboard" stroke="none" stroke-width="1" fill="none" fill-rule="evenodd">
        <g id="login" transform="translate(-386.000000, -13.000000)">
            <g id="logo-negative-2" transform="translate(386.000000, 13.000000)">
                <path d="M115.718092,40.7466399 C119.426677,40.7466399 121.667446,36.8830103 121.667446,33.5219989 L121.667446,32.633756 L120.547487,32.633756 C117.495146,32.633756 111.391032,32.7107106 111.391032,37.0761066 C111.391032,38.8914957 112.820512,40.7466399 115.718092,40.7466399 Z M120.586107,30.5468962 L121.667446,30.5468962 L121.667446,30.3160326 C121.667446,26.2590227 120.199346,24.8295422 116.645523,24.8295422 C115.679189,24.8295422 112.859131,25.0995931 112.859131,26.5293575 L112.859131,27.7657417 L110.348028,27.7657417 L110.348028,25.9111654 C110.348028,23.2066815 114.983759,22.6271086 116.683574,22.6271086 C122.826876,22.6271086 124.294975,25.9111654 124.294975,30.0834651 L124.294975,39.39383 C124.294975,39.9734028 124.603645,40.2445895 125.144599,40.2445895 L126.76746,40.2445895 L126.76746,42.5236937 L124.101027,42.5236937 C122.440115,42.5236937 121.783304,41.7890759 121.783304,40.2059703 C121.783304,39.3554947 121.822207,38.7767738 121.822207,38.7767738 L121.744968,38.7767738 C121.783304,38.7767738 120.160727,42.9874088 115.292997,42.9874088 C112.047843,42.9874088 108.686832,41.0944972 108.686832,37.2308676 C108.686832,30.7791797 117.224811,30.5468962 120.586107,30.5468962 Z" id="Fill-1" fill="#FEFEFE"></path>
                <path d="M137.429783,22.6272222 C139.631932,22.6272222 144.345186,23.5546523 144.345186,26.7611866 L144.345186,28.4999052 L141.872701,28.4999052 L141.872701,27.3790948 C141.872701,25.756802 139.052643,24.9841328 137.429783,24.9841328 C133.257483,24.9841328 129.896472,28.1131446 129.896472,32.8269659 C129.896472,37.6171737 133.412244,40.5919925 137.507021,40.5919925 C141.486509,40.5919925 143.765613,37.8486053 143.765613,37.8486053 L145.002281,39.8187554 C145.002281,39.8187554 142.374752,42.9872384 137.391163,42.9872384 C131.596287,42.9872384 127.192272,38.85299 127.192272,32.8269659 C127.192272,26.8770444 131.63519,22.6272222 137.429783,22.6272222" id="Fill-3" fill="#FEFEFE"></path>
                <path d="M81.3199191,30.7928952 C81.165726,26.7747886 78.6932416,24.8046385 75.8339966,24.8046385 C72.6274623,24.8046385 69.8076886,26.8903624 69.1505932,30.7928952 L81.3199191,30.7928952 Z M75.8728999,22.6019209 C81.2426806,22.6019209 84.024403,26.7361693 84.024403,31.5649964 C84.024403,32.0287115 83.9468805,32.8783352 83.9468805,32.8783352 L69.0347355,32.8783352 C69.11169,37.7855367 72.5499399,40.6055944 76.5680465,40.6055944 C80.1224381,40.6055944 82.4018262,38.2103485 82.4018262,38.2103485 L83.6765457,40.1807826 C83.6765457,40.1807826 80.856488,42.9619371 76.4524727,42.9619371 C70.6959315,42.9619371 66.2916323,38.7890695 66.2916323,32.8019486 C66.2916323,26.4269313 70.6573122,22.6019209 75.8728999,22.6019209 L75.8728999,22.6019209 Z" id="Fill-5" fill="#FEFEFE"></path>
                <path d="M56.6720578,40.1032885 L50.8768973,40.1032885 C50.3359437,40.1032885 50.0272736,39.8323858 50.0272736,39.2536648 L50.0272736,29.4403977 L56.6334385,29.4403977 C59.8013535,29.4403977 61.9645999,31.5650248 61.9645999,34.8107463 C61.9645999,38.0556159 59.9555466,40.1032885 56.6720578,40.1032885 L56.6720578,40.1032885 Z M50.0272736,17.7345029 L56.2855812,17.7345029 C59.1445422,17.7345029 60.92188,19.5890792 60.92188,22.3702338 C60.92188,25.1905755 59.0673037,27.1223903 56.3242005,27.1223903 L50.0272736,27.1223903 L50.0272736,17.7345029 Z M60.2261654,28.1653942 L60.2261654,28.0881557 C62.1963155,27.1223903 63.7030345,25.1519562 63.7030345,22.1771375 C63.7030345,17.9275992 60.6126419,15.339257 56.3631037,15.339257 L47.31995,15.339257 L47.3230736,40.1419077 C47.3230736,41.8025359 48.0182203,42.4985344 49.6794163,42.4985344 L56.6720578,42.4985344 C61.2305501,42.4985344 64.7849417,39.7170959 64.7849417,34.8874169 C64.7849417,31.603928 63.0078878,28.9380634 60.2261654,28.1653942 L60.2261654,28.1653942 Z" id="Fill-7" fill="#FEFEFE"></path>
                <g id="Group-11" transform="translate(147.093940, 15.163738)">
                    <mask id="mask-2" fill="white">
                        <use xlink:href="#path-1"></use>
                    </mask>
                    <g id="Clip-10"></g>
                    <path d="M14.5982216,25.0809649 C13.5552177,25.0809649 13.1690251,24.8873007 12.8211678,24.2302054 L9.30539548,17.9332785 C8.68748734,16.7738489 8.10819847,16.5037981 8.10819847,16.5037981 L8.10819847,16.4262756 C8.10819847,16.4262756 8.61053279,16.2340312 9.57601425,15.0359823 L15.1777945,7.92748306 L11.9709762,7.92748306 L6.98738808,14.4175062 C6.44671847,15.1129368 5.51928834,15.3446524 4.78523847,15.3446524 L2.77618514,15.3446524 L2.77618514,2.44156062 C2.77618514,0.780364586 2.08132245,0.200791747 0.419842451,0.200791747 L0.149223678,0.200791747 L0.149507643,27.3597851 L2.77618514,27.3597851 L2.77618514,17.6246084 L4.55380688,17.6246084 C5.24866956,17.6246084 6.17666762,17.7021309 6.60147947,18.4739482 L10.4642572,25.4282543 C11.353352,27.0508311 11.8940216,27.3597851 13.8258365,27.3597851 L15.6415095,27.3597851 L15.6415095,25.0809649 L14.5982216,25.0809649 Z" id="Fill-9" fill="#FEFEFE" mask="url(#mask-2)"></path>
                </g>
                <path d="M99.0908832,40.1032885 L93.2957227,40.1032885 C92.7547691,40.1032885 92.446099,39.8323858 92.446099,39.2536648 L92.446099,29.4403977 L99.0519799,29.4403977 C102.219895,29.4403977 104.383425,31.5650248 104.383425,34.8107463 C104.383425,38.0556159 102.374372,40.1032885 99.0908832,40.1032885 L99.0908832,40.1032885 Z M92.446099,17.7345029 L98.7044066,17.7345029 C101.563368,17.7345029 103.340705,19.5890792 103.340705,22.3702338 C103.340705,25.1905755 101.486129,27.1223903 98.7427419,27.1223903 L92.446099,27.1223903 L92.446099,17.7345029 Z M102.644991,28.1653942 L102.644991,28.0881557 C104.615141,27.1223903 106.12186,25.1519562 106.12186,22.1771375 C106.12186,17.9275992 103.031467,15.339257 98.7813612,15.339257 L89.7384914,15.339257 L89.7416151,40.1419077 C89.7416151,41.8025359 90.4367617,42.4985344 92.0982417,42.4985344 L99.0908832,42.4985344 C103.649375,42.4985344 107.203483,39.7170959 107.203483,34.8874169 C107.203483,31.603928 105.426713,28.9380634 102.644991,28.1653942 L102.644991,28.1653942 Z" id="Fill-12" fill="#FEFEFE"></path>
                <path d="M106.37581,54.3073665 L107.454026,51.29762 C107.635763,50.7790997 107.831699,49.9113023 107.831699,49.9113023 L107.860096,49.9113023 C107.860096,49.9113023 108.069946,50.7790997 108.251684,51.29762 L109.330467,54.3073665 L106.37581,54.3073665 Z M111.68255,56.8136428 L108.588182,48.4412148 L107.117527,48.4412148 L104.023727,56.8136428 C103.939673,57.0666557 103.813592,57.1223129 103.561147,57.1223129 L103.365212,57.1223129 L103.365212,58.3263251 L104.135609,58.3263251 C104.835583,58.3263251 105.059632,58.1582177 105.297878,57.5141848 L106.039595,55.484402 L109.680596,55.484402 L110.422313,57.5141848 C110.646362,58.1582177 110.87041,58.3263251 111.570668,58.3263251 L112.354696,58.3263251 L112.354696,57.1223129 L112.144562,57.1223129 C111.906883,57.1223129 111.766604,57.0666557 111.68255,56.8136428 L111.68255,56.8136428 Z" id="Fill-14" fill="#FBC40F"></path>
                <g id="Group-18" transform="translate(47.138212, 48.387659)">
                    <mask id="mask-4" fill="white">
                        <use xlink:href="#path-3"></use>
                    </mask>
                    <g id="Clip-17"></g>
                    <path d="M4.71810911,0.0534990314 L0.186309525,0.0534990314 L0.186309525,2.06170046 L0.181766083,2.06170046 L0.181766083,9.9388933 L1.5817142,9.9388933 L1.5817142,5.70980055 L4.95607189,5.70980055 L4.95607189,4.50607234 L1.5817142,4.50607234 L1.5817142,1.25722724 L3.32355633,1.25722724 L3.32355633,1.25041207 L5.61401911,1.25041207 L5.61401911,0.949409031 C5.61401911,0.319574362 5.34851171,0.0534990314 4.71810911,0.0534990314" id="Fill-16" fill="#FBC40F" mask="url(#mask-4)"></path>
                </g>
                <path d="M63.6135571,57.1223413 L62.3254912,57.1223413 C62.1295553,57.1223413 62.0173891,57.0101751 62.0173891,56.8136712 L62.0173891,49.6449714 L63.6135571,49.6449714 C65.7978169,49.6449714 67.2542741,50.9475194 67.2542741,53.369742 C67.2542741,55.8064468 65.8117312,57.1223413 63.6135571,57.1223413 M63.711809,48.4412431 L60.6160211,48.4412431 L60.6160211,49.6449714 L60.6174409,49.6449714 L60.6174409,57.4301595 C60.6174409,58.0605621 60.8832323,58.3263534 61.5136349,58.3263534 L63.711809,58.3263534 C66.7218394,58.3263534 68.7101633,56.505853 68.7101633,53.369742 C68.7101633,50.2478293 66.7218394,48.4412431 63.711809,48.4412431" id="Fill-19" fill="#FBC40F"></path>
                <path d="M96.9653189,57.1223413 L95.6772531,57.1223413 C95.4813171,57.1223413 95.3691509,57.0101751 95.3691509,56.8136712 L95.3691509,49.6449714 L96.9653189,49.6449714 C99.1495787,49.6449714 100.606036,50.9475194 100.606036,53.369742 C100.606036,55.8064468 99.163493,57.1223413 96.9653189,57.1223413 M97.0635709,48.4412431 L93.967783,48.4412431 L93.967783,49.6449714 L93.9692028,49.6449714 L93.9692028,57.4301595 C93.9692028,58.0605621 94.2349942,58.3263534 94.8651128,58.3263534 L97.0635709,58.3263534 C100.073601,58.3263534 102.061925,56.505853 102.061925,53.369742 C102.061925,50.2478293 100.073601,48.4412431 97.0635709,48.4412431" id="Fill-21" fill="#FBC40F"></path>
                <path d="M117.80623,57.1223413 L116.518448,57.1223413 C116.322228,57.1223413 116.209778,57.0101751 116.209778,56.8136712 L116.209778,49.6449714 L117.80623,49.6449714 C119.990206,49.6449714 121.446663,50.9475194 121.446663,53.369742 C121.446663,55.8064468 120.004404,57.1223413 117.80623,57.1223413 M117.904766,48.4412431 L114.80841,48.4412431 L114.80841,49.6449714 L114.810114,49.6449714 L114.810114,57.4301595 C114.810114,58.0605621 115.075905,58.3263534 115.706024,58.3263534 L117.904766,58.3263534 C120.914512,58.3263534 122.902552,56.505853 122.902552,53.369742 C122.902552,50.2478293 120.914512,48.4412431 117.904766,48.4412431" id="Fill-23" fill="#FBC40F"></path>
                <path d="M81.6558782,56.8136996 L81.6558782,49.3371815 C81.6558782,48.7070629 81.3898029,48.4412715 80.7596843,48.4412715 L80.2556462,48.4412715 L80.2556462,49.9519661 L80.2562141,49.9536699 L80.2562141,57.4301879 C80.2562141,58.0605905 80.5217215,58.3263818 81.1521241,58.3263818 L85.3806489,58.3263818 C86.0107675,58.3263818 86.2768429,58.0605905 86.2768429,57.4301879 L86.2768429,57.1232216 L81.9639804,57.1223697 C81.7683284,57.1223697 81.6558782,57.0102034 81.6558782,56.8136996" id="Fill-25" fill="#FBC40F"></path>
                <mask id="mask-6" fill="white">
                    <use xlink:href="#path-5"></use>
                </mask>
                <g id="Clip-28"></g>
                <polygon id="Fill-27" fill="#FBC40F" mask="url(#mask-6)" points="55.4546992 58.3264386 56.7799645 58.3264386 56.7799645 48.4410444 55.4546992 48.4410444"></polygon>
                <polygon id="Fill-29" fill="#FBC40F" mask="url(#mask-6)" points="88.7754521 58.3264386 90.1007174 58.3264386 90.1007174 48.4410444 88.7754521 48.4410444"></polygon>
                <path d="M76.3661757,56.8136996 C76.3661757,57.0102034 76.2540095,57.1223697 76.0580735,57.1223697 L73.1738397,57.1223697 C72.9779037,57.1223697 72.8654535,57.0102034 72.8654535,56.8136996 L72.8654535,53.943664 L76.3241489,53.943664 L76.3241489,52.7396518 L72.8654535,52.7396518 L72.8654535,49.6449998 L75.6801159,49.6449998 C75.8760519,49.6449998 75.9879341,49.7438196 75.9879341,49.9536699 L75.9879341,50.5837885 L77.2623697,50.5837885 L77.2623697,49.3371815 C77.2623697,48.7070629 76.9962943,48.4412715 76.3661757,48.4412715 L71.4643696,48.4412715 L71.4643696,49.6449998 L71.4657894,49.6449998 L71.4657894,57.4301879 C71.4657894,58.0605905 71.7312968,58.3263818 72.3619833,58.3263818 L76.7583316,58.3263818 C77.3881662,58.3263818 77.6542416,58.0605905 77.6542416,57.4301879 L77.6542416,56.1838649 L76.3661757,56.1838649 L76.3661757,56.8136996 Z" id="Fill-30" fill="#FBC40F" mask="url(#mask-6)"></path>
                <path d="M130.544452,56.1839217 L130.544452,56.8137564 C130.544452,57.0102602 130.432001,57.1224265 130.236066,57.1224265 L127.351832,57.1224265 C127.155896,57.1224265 127.043729,57.0102602 127.043729,56.8137564 L127.043729,53.9434368 L130.502141,53.9434368 L130.502141,52.7397086 L127.043729,52.7397086 L127.043729,49.6450565 L129.858108,49.6450565 C130.054328,49.6450565 130.165926,49.7435924 130.165926,49.9537266 L130.165926,50.5835613 L131.440362,50.5835613 L131.440362,49.3372383 C131.440362,48.7071197 131.174286,48.4410444 130.544452,48.4410444 L125.642362,48.4410444 L125.642362,49.6450565 L125.643781,49.6450565 L125.643781,57.4302447 C125.643781,58.0603633 125.909573,58.3264386 126.539691,58.3264386 L130.936324,58.3264386 C131.566442,58.3264386 131.832234,58.0603633 131.832234,57.4302447 L131.832234,56.1839217 L130.544452,56.1839217 Z" id="Fill-31" fill="#FBC40F" mask="url(#mask-6)"></path>
                <path d="M31.9952604,34.2284758 C30.6316598,30.5653256 27.1093563,26.269217 24.86376,23.9838656 C23.0631371,26.2354252 21.9937244,26.9669194 19.3389344,29.0787681 C21.2210553,30.9427152 23.8264354,34.674869 24.6737873,36.9528373 C25.5853154,39.4026045 25.8863185,43.3400651 23.7341467,46.3770722 C21.7838742,49.1303981 18.1099332,50.5513597 13.0914174,50.4451567 L12.532574,50.434934 L12.263943,50.508197 C11.6335404,50.532618 9.90021724,50.4843439 8.32676643,50.3968826 L8.10953311,50.3906354 C8.08851969,50.3906354 8.02604736,50.3906354 7.96272313,50.3267432 C7.89911494,50.2628511 7.89939891,50.2000948 7.89939891,50.1697105 L7.95959951,33.5517869 C7.96556278,32.7890565 8.39179445,32.370208 11.5739077,30.6703927 C11.9243207,30.4832596 12.2838206,30.2910152 12.6504196,30.0913878 C13.4622759,29.7347275 16.2698392,28.4270681 19.0938724,26.2308818 C23.8326826,22.5464341 26.4105181,18.1063553 26.549945,13.3394326 C26.565847,12.374519 26.0510182,8.86357412 24.7964603,6.67761052 C22.4347222,2.55841228 18.0199163,-0.000113586054 13.2748589,-0.000113586054 C5.9553736,-0.000113586054 5.67930269e-05,5.95548718 5.67930269e-05,13.2746885 L5.67930269e-05,26.2601302 C5.67930269e-05,26.2601302 3.2846815,23.3741925 7.81136971,21.3603118 L7.81136971,13.2746885 C7.81136971,10.2623864 10.2622728,7.81119934 13.2748589,7.81119934 C15.2282551,7.81119934 17.0470518,8.86641378 18.0210522,10.5645253 C18.2879794,11.0339196 18.7852023,12.0434157 18.7343726,13.3107521 C18.4151958,19.0627499 9.53305033,22.9297871 9.45212026,22.9641468 L9.05911252,23.1515638 C8.6609934,23.370501 8.27139323,23.5786474 7.89229978,23.7808306 C4.46256888,25.6129736 0.193721015,27.8937816 0.148002628,33.5052166 L0.0880859847,50.1308073 C0.0747396234,52.2801394 0.903065921,54.3050948 2.42171146,55.8328272 C3.9102567,57.3310273 5.88154266,58.1695763 7.98402052,58.2010964 C9.6358457,58.2922492 10.8125972,58.3263251 11.6653445,58.3263251 C12.4374457,58.3263251 12.9440395,58.2987804 13.2958723,58.2601612 C13.3839015,58.2610131 13.4722147,58.261581 13.5596759,58.261581 C22.9021289,58.261581 27.7110784,54.2769822 30.1083121,50.8935377 C33.3790225,46.2768325 34.1022817,39.8910246 31.9952604,34.2284758" id="Fill-32" fill="#FEFEFE" mask="url(#mask-6)"></path>
            </g>
        </g>
    </g>
</svg>