<svg xmlns="http://www.w3.org/2000/svg" xmlns:xlink="http://www.w3.org/1999/xlink" width="163" height="59" viewBox="0 0 163 59">
    <defs>
        <path id="a" d="M15.641 27.36V.2H.15v27.16h15.492z"/>
        <path id="c" d="M5.614 9.939H.182V.053h5.432z"/>
        <linearGradient id="e" x1="0%" y1="50%" y2="50%">
            <stop offset="0%" stop-color="#919395"/>
            <stop offset="100%" stop-color="#5C5D5F"/>
        </linearGradient>
    </defs>
    <g fill="none" fill-rule="evenodd">
        <path fill="#00508F" d="M115.718 40.747c3.709 0 5.95-3.864 5.95-7.225v-.888h-1.12c-3.053 0-9.157.077-9.157 4.442 0 1.815 1.43 3.67 4.327 3.67zm4.868-10.2h1.081v-.231c0-4.057-1.468-5.486-5.021-5.486-.967 0-3.787.27-3.787 1.7v1.236h-2.511V25.91c0-2.704 4.636-3.284 6.336-3.284 6.143 0 7.611 3.284 7.611 7.456v9.31c0 .58.309.852.85.852h1.622v2.279h-2.666c-1.66 0-2.318-.735-2.318-2.318 0-.85.04-1.43.04-1.43h-.078c.038 0-1.584 4.211-6.452 4.211-3.245 0-6.606-1.893-6.606-5.756 0-6.452 8.538-6.684 11.9-6.684zM137.43 22.627c2.202 0 6.915.928 6.915 4.134V28.5h-2.472v-1.12c0-1.623-2.82-2.396-4.443-2.396-4.173 0-7.534 3.13-7.534 7.843 0 4.79 3.516 7.765 7.611 7.765 3.98 0 6.259-2.743 6.259-2.743l1.236 1.97s-2.627 3.168-7.61 3.168c-5.796 0-10.2-4.134-10.2-10.16 0-5.95 4.443-10.2 10.238-10.2"/>
        <path fill="#0094BB" d="M81.32 30.793c-.154-4.018-2.627-5.988-5.486-5.988-3.207 0-6.026 2.085-6.683 5.988H81.32zm-5.447-8.191c5.37 0 8.151 4.134 8.151 8.963 0 .464-.077 1.313-.077 1.313H69.035c.077 4.908 3.515 7.728 7.533 7.728 3.554 0 5.834-2.396 5.834-2.396l1.275 1.97s-2.82 2.782-7.225 2.782c-5.756 0-10.16-4.173-10.16-10.16 0-6.375 4.365-10.2 9.58-10.2zM56.672 40.103h-5.795c-.541 0-.85-.27-.85-.85V29.44h6.606c3.168 0 5.332 2.125 5.332 5.37 0 3.246-2.01 5.293-5.293 5.293zm-6.645-22.368h6.259c2.859 0 4.636 1.854 4.636 4.635 0 2.82-1.855 4.752-4.598 4.752h-6.297v-9.387zm10.2 10.43v-.077c1.97-.966 3.476-2.936 3.476-5.91 0-4.25-3.09-6.839-7.34-6.839H47.32l.003 24.803c0 1.66.695 2.357 2.356 2.357h6.993c4.559 0 8.113-2.782 8.113-7.612 0-3.283-1.777-5.949-4.559-6.722z"/>
        <g transform="translate(147.094 15.164)">
            <mask id="b" fill="#fff">
                <use xlink:href="#a"/>
            </mask>
            <path fill="#00508F" d="M14.598 25.081c-1.043 0-1.429-.194-1.777-.85l-3.516-6.298c-.618-1.16-1.197-1.43-1.197-1.43v-.077s.503-.192 1.468-1.39l5.602-7.109H11.97l-4.984 6.49c-.54.696-1.468.928-2.202.928H2.776V2.442C2.776.78 2.081.2.42.2H.15V27.36h2.626v-9.735h1.778c.695 0 1.623.077 2.047.849l3.863 6.954c.89 1.623 1.43 1.932 3.362 1.932h1.816V25.08h-1.044z" mask="url(#b)"/>
        </g>
        <path fill="#00508F" d="M99.09 40.103h-5.794c-.541 0-.85-.27-.85-.85V29.44h6.606c3.168 0 5.331 2.125 5.331 5.37 0 3.246-2.009 5.293-5.292 5.293zm-6.644-22.368h6.258c2.86 0 4.637 1.854 4.637 4.635 0 2.82-1.855 4.752-4.598 4.752h-6.297v-9.387zm10.199 10.43v-.077c1.97-.966 3.477-2.936 3.477-5.91 0-4.25-3.09-6.839-7.34-6.839h-9.044l.004 24.803c0 1.66.695 2.357 2.356 2.357h6.993c4.558 0 8.112-2.782 8.112-7.612 0-3.283-1.776-5.949-4.558-6.722z"/>
        <path fill="#0094BB" d="M106.376 54.307l1.078-3.01c.182-.518.378-1.386.378-1.386h.028s.21.868.392 1.387l1.078 3.01h-2.954zm5.307 2.507l-3.095-8.373h-1.47l-3.094 8.373c-.084.253-.21.308-.463.308h-.196v1.204h.77c.7 0 .925-.168 1.163-.812l.742-2.03h3.64l.742 2.03c.224.644.448.812 1.149.812h.784v-1.204h-.21c-.238 0-.378-.055-.462-.308z"/>
        <g transform="translate(47.138 48.388)">
            <mask id="d" fill="#fff">
                <use xlink:href="#c"/>
            </mask>
            <path fill="#0094BB" d="M4.718.053H.186v2.009H.182v7.877h1.4v-4.23h3.374V4.507H1.582V1.257h1.742V1.25h2.29v-.3c0-.63-.265-.897-.896-.897" mask="url(#d)"/>
        </g>
        <path fill="#0094BB" d="M63.614 57.122h-1.289c-.195 0-.308-.112-.308-.308v-7.169h1.597c2.184 0 3.64 1.303 3.64 3.725 0 2.436-1.442 3.752-3.64 3.752m.098-8.68h-3.096v1.203h.001v7.785c0 .63.266.896.897.896h2.198c3.01 0 4.998-1.82 4.998-4.956 0-3.122-1.988-4.929-4.998-4.929M96.965 57.122h-1.288c-.196 0-.308-.112-.308-.308v-7.169h1.596c2.185 0 3.641 1.303 3.641 3.725 0 2.436-1.443 3.752-3.64 3.752m.098-8.68h-3.096v1.203h.001v7.785c0 .63.266.896.896.896h2.199c3.01 0 4.998-1.82 4.998-4.956 0-3.122-1.988-4.929-4.998-4.929M117.806 57.122h-1.288c-.196 0-.308-.112-.308-.308v-7.169h1.596c2.184 0 3.64 1.303 3.64 3.725 0 2.436-1.442 3.752-3.64 3.752m.099-8.68h-3.097v1.203h.002v7.785c0 .63.266.896.896.896h2.199c3.01 0 4.998-1.82 4.998-4.956 0-3.122-1.988-4.929-4.998-4.929M81.656 56.814v-7.477c0-.63-.266-.896-.896-.896h-.504v8.989c0 .63.266.896.896.896h4.229c.63 0 .896-.265.896-.896v-.307h-4.313c-.196 0-.308-.113-.308-.31M55.455 58.326h1.325v-9.885h-1.325zM88.775 58.326h1.326v-9.885h-1.326zM76.366 56.814c0 .196-.112.308-.308.308h-2.884c-.196 0-.309-.112-.309-.308v-2.87h3.46V52.74h-3.46v-3.095h2.815c.196 0 .308.099.308.309v.63h1.274v-1.247c0-.63-.266-.896-.896-.896h-4.902v1.204h.002v7.785c0 .63.265.896.896.896h4.396c.63 0 .896-.265.896-.896v-1.246h-1.288v.63zM130.544 56.184v.63c0 .196-.112.308-.308.308h-2.884c-.196 0-.308-.112-.308-.308v-2.87h3.458V52.74h-3.458v-3.095h2.814c.196 0 .308.099.308.309v.63h1.274v-1.247c0-.63-.266-.896-.896-.896h-4.902v1.204h.002v7.785c0 .63.266.896.896.896h4.396c.63 0 .896-.266.896-.896v-1.246h-1.288z"/>
        <path fill="url(#e)" d="M31.995 34.228c-1.363-3.663-4.886-7.959-7.131-10.244-1.8 2.251-2.87 2.983-5.525 5.095 1.882 1.864 4.487 5.596 5.335 7.874.911 2.45 1.212 6.387-.94 9.424-1.95 2.753-5.624 4.174-10.643 4.068l-.558-.01-.27.073c-.63.025-2.363-.024-3.936-.111l-.217-.006c-.021 0-.084 0-.147-.064-.064-.064-.064-.127-.064-.157l.06-16.618c.007-.763.433-1.182 3.615-2.882.35-.187.71-.379 1.076-.579a32.24 32.24 0 0 0 6.444-3.86c4.739-3.685 7.317-8.125 7.456-12.892.016-.964-.499-4.475-1.754-6.661A13.314 13.314 0 0 0 13.275 0C5.955 0 0 5.955 0 13.275V26.26s3.285-2.886 7.811-4.9v-8.085a5.47 5.47 0 0 1 5.464-5.464 5.487 5.487 0 0 1 4.746 2.754c.267.469.764 1.478.713 2.746-.319 5.752-9.2 9.619-9.282 9.653l-.393.188c-.398.219-.788.427-1.167.629-3.43 1.832-7.698 4.113-7.744 9.724l-.06 16.626a7.963 7.963 0 0 0 2.334 5.702A7.96 7.96 0 0 0 7.984 58.2c1.652.091 2.829.125 3.681.125.772 0 1.279-.027 1.63-.066l.265.002c9.342 0 14.151-3.985 16.548-7.368 3.271-4.617 3.994-11.003 1.887-16.666"/>
    </g>
</svg>
